<svg xmlns="http://www.w3.org/2000/svg" xmlns:xlink="http://www.w3.org/1999/xlink" width="500" zoomAndPan="magnify" viewBox="0 0 375 374.999991" height="500" preserveAspectRatio="xMidYMid meet" version="1.2"><defs><clipPath id="2514cdeaba"><path d="M 144 227 L 150.867188 227 L 150.867188 238 L 144 238 Z M 144 227 "/></clipPath><clipPath id="ec5706a303"><path d="M 57 136 L 138 136 L 138 254.535156 L 57 254.535156 Z M 57 136 "/></clipPath><clipPath id="6cc6f0dbd0"><path d="M 172 145 L 287 145 L 287 175 L 172 175 Z M 172 145 "/></clipPath><clipPath id="040892968b"><path d="M 135.367188 181.855469 L 286.511719 123.550781 L 304.59375 170.433594 L 153.449219 228.738281 Z M 135.367188 181.855469 "/></clipPath><clipPath id="a797dbdef7"><path d="M 153.542969 228.980469 L 304.6875 170.675781 L 286.601562 123.792969 L 135.457031 182.09375 Z M 153.542969 228.980469 "/></clipPath><clipPath id="7f86641824"><path d="M 150 145 L 295 145 L 295 221 L 150 221 Z M 150 145 "/></clipPath><clipPath id="7a777a2031"><path d="M 135.367188 181.855469 L 286.511719 123.550781 L 304.59375 170.433594 L 153.449219 228.738281 Z M 135.367188 181.855469 "/></clipPath><clipPath id="588b2fe36a"><path d="M 153.542969 228.980469 L 304.6875 170.675781 L 286.601562 123.792969 L 135.457031 182.09375 Z M 153.542969 228.980469 "/></clipPath><clipPath id="0dd64ff045"><path d="M 154 180 L 212 180 L 212 229 L 154 229 Z M 154 180 "/></clipPath><clipPath id="3e86eeb586"><path d="M 135.367188 181.855469 L 286.511719 123.550781 L 304.59375 170.433594 L 153.449219 228.738281 Z M 135.367188 181.855469 "/></clipPath><clipPath id="be4c155ac1"><path d="M 153.542969 228.980469 L 304.6875 170.675781 L 286.601562 123.792969 L 135.457031 182.09375 Z M 153.542969 228.980469 "/></clipPath><clipPath id="311efbccb4"><path d="M 185 170 L 189 170 L 189 172 L 185 172 Z M 185 170 "/></clipPath><clipPath id="fef769a9fe"><path d="M 135.367188 181.855469 L 286.511719 123.550781 L 304.59375 170.433594 L 153.449219 228.738281 Z M 135.367188 181.855469 "/></clipPath><clipPath id="fdb0ee9e9b"><path d="M 153.542969 228.980469 L 304.6875 170.675781 L 286.601562 123.792969 L 135.457031 182.09375 Z M 153.542969 228.980469 "/></clipPath><clipPath id="c3cd2c4546"><path d="M 174 170 L 188 170 L 188 178 L 174 178 Z M 174 170 "/></clipPath><clipPath id="17ad5319ec"><path d="M 135.367188 181.855469 L 286.511719 123.550781 L 304.59375 170.433594 L 153.449219 228.738281 Z M 135.367188 181.855469 "/></clipPath><clipPath id="d06e81731d"><path d="M 153.542969 228.980469 L 304.6875 170.675781 L 286.601562 123.792969 L 135.457031 182.09375 Z M 153.542969 228.980469 "/></clipPath><clipPath id="8600b36770"><path d="M 105 184 L 127.785156 184 L 127.785156 214 L 105 214 Z M 105 184 "/></clipPath><clipPath id="93dc52e513"><path d="M 82.035156 202 L 107 202 L 107 214.582031 L 82.035156 214.582031 Z M 82.035156 202 "/></clipPath></defs><g id="ef5077699f"><path style=" stroke:none;fill-rule:evenodd;fill:#fcd739;fill-opacity:1;" d="M 115.789062 130.578125 C 115.402344 132.25 119.511719 132.96875 120.777344 131.8125 C 125.636719 127.382812 131.449219 122.222656 132.128906 115.683594 C 132.496094 112.160156 125.289062 107.46875 123.027344 110.195312 C 118.457031 115.710938 117.289062 124.066406 115.789062 130.578125 M 91.421875 129.996094 C 89.796875 122.292969 93.605469 113.851562 90.660156 107.707031 C 89.140625 104.535156 78.125 105.996094 78.386719 109.503906 C 78.960938 117.136719 82.847656 124.542969 85.570312 130.589844 C 86.378906 132.375 91.824219 131.914062 91.421875 129.996094 Z M 61.460938 145.023438 C 55.867188 139.214844 53.46875 131.515625 48.65625 129.132812 C 44.898438 127.269531 38.199219 134.050781 39.691406 137.96875 C 42.105469 144.308594 49.980469 147.453125 56.433594 149.542969 C 58.578125 150.238281 63.023438 146.648438 61.460938 145.023438 Z M 48.65625 174.714844 C 42.464844 173.429688 35.25 172.652344 29.707031 175.699219 C 27.117188 177.121094 27.925781 184.167969 30.859375 184.488281 C 36.886719 185.152344 43.511719 182.019531 49.355469 179.761719 C 50.9375 179.152344 50.320312 175.058594 48.65625 174.714844 Z M 57.410156 203.800781 C 52.757812 206.425781 46.585938 207.234375 43.421875 210.332031 C 41.390625 212.320312 45.5625 218.355469 48.226562 217.371094 C 52.871094 215.652344 56.570312 210.519531 60.121094 207.296875 C 61.210938 206.308594 58.695312 203.078125 57.410156 203.800781 Z M 57.410156 203.800781 "/><g clip-rule="nonzero" clip-path="url(#2514cdeaba)"><path style=" stroke:none;fill-rule:evenodd;fill:#f68f18;fill-opacity:1;" d="M 145.625 237.976562 C 148.488281 235.621094 150.5 233.601562 150.492188 232.519531 C 150.488281 231.425781 148.09375 229.507812 144.625 227.351562 C 144.71875 227.714844 144.800781 228.078125 144.878906 228.445312 C 145.457031 231.171875 145.671875 234.007812 145.671875 236.742188 L 145.671875 236.753906 C 145.671875 237.164062 145.652344 237.570312 145.625 237.976562 "/></g><path style=" stroke:none;fill-rule:evenodd;fill:#fcd739;fill-opacity:1;" d="M 126.140625 217.488281 C 129.5 220.003906 128.402344 224.617188 126.6875 227.992188 C 129.65625 232.390625 129.574219 236.769531 126.835938 240.390625 C 129.523438 245.125 128.796875 247.230469 127.773438 249.902344 C 130.457031 247.863281 136.808594 244.738281 142.46875 240.453125 C 142.683594 239.226562 142.859375 237.988281 142.859375 236.757812 L 142.859375 236.742188 C 142.859375 234.171875 142.664062 231.527344 142.132812 229.027344 C 141.855469 227.710938 141.484375 226.429688 141 225.222656 C 135.808594 222.320312 130.714844 219.328125 126.140625 217.488281 "/><g clip-rule="nonzero" clip-path="url(#ec5706a303)"><path style=" stroke:none;fill-rule:evenodd;fill:#f68f18;fill-opacity:1;" d="M 88.054688 240.640625 C 85.726562 240.527344 83.925781 238.546875 84.035156 236.21875 C 84.140625 233.890625 86.121094 232.089844 88.449219 232.203125 C 100.214844 232.773438 109.140625 231.683594 118.046875 230.601562 C 118.550781 230.539062 118.480469 230.550781 119.820312 230.386719 C 122.128906 230.109375 124.222656 231.757812 124.496094 234.066406 C 124.769531 236.378906 123.117188 238.480469 120.808594 238.757812 C 120.640625 238.777344 120.742188 238.769531 119.066406 238.972656 L 119.050781 238.972656 C 109.746094 240.105469 100.421875 241.242188 88.054688 240.640625 M 92.019531 254.519531 C 89.691406 254.527344 87.804688 252.644531 87.804688 250.316406 C 87.804688 247.984375 89.691406 246.089844 92.019531 246.078125 C 92.457031 246.078125 92.949219 246.074219 93.472656 246.066406 C 94.574219 246.046875 95.824219 246.003906 97.195312 245.933594 C 98.316406 245.882812 99.628906 245.796875 101.125 245.683594 C 107.585938 245.1875 114.222656 244.257812 118.855469 242.980469 C 121.09375 242.363281 123.410156 243.675781 124.027344 245.914062 C 124.644531 248.152344 123.332031 250.472656 121.09375 251.085938 C 115.753906 252.5625 108.554688 253.597656 101.753906 254.121094 C 100.515625 254.214844 99.117188 254.300781 97.589844 254.375 C 96.316406 254.4375 94.980469 254.480469 93.605469 254.503906 C 93.101562 254.511719 92.570312 254.519531 92.019531 254.519531 Z M 137.476562 165.335938 C 138.339844 170.785156 129.988281 172.128906 129.125 166.675781 C 125.761719 150.425781 111.1875 143.882812 97.109375 145.035156 C 83.890625 146.117188 70.074219 155.332031 66.773438 168.269531 C 65.046875 175.042969 66.507812 182.789062 70.1875 188.683594 C 73.628906 194.203125 78.570312 197.476562 83.382812 202.699219 C 84.183594 203.566406 84.941406 204.519531 85.636719 205.535156 C 87.789062 208.660156 89.300781 212.3125 89.984375 215.953125 C 90.402344 218.175781 90.933594 218.757812 92.101562 218.867188 C 100.578125 219.640625 110.929688 219.15625 119.222656 217.40625 C 121.503906 216.925781 123.734375 218.390625 124.207031 220.667969 C 124.683594 222.949219 123.21875 225.1875 120.941406 225.667969 C 115.535156 226.808594 105.34375 227.523438 95.992188 227.253906 C 94.015625 227.203125 92.195312 227.113281 90.605469 226.996094 C 87.515625 226.765625 81.191406 226.859375 81.875 221.714844 C 82.347656 218.144531 81.101562 213.820312 78.699219 210.328125 C 73.308594 202.480469 66.375 199.351562 61.824219 190.996094 C 58.125 184.210938 56.683594 175.585938 58.164062 167.996094 C 61.675781 150.066406 80.230469 137.320312 98.542969 136.554688 C 116.347656 135.808594 134.089844 145.066406 137.476562 165.335938 Z M 137.476562 165.335938 "/></g><g clip-rule="nonzero" clip-path="url(#6cc6f0dbd0)"><g clip-rule="nonzero" clip-path="url(#040892968b)"><g clip-rule="nonzero" clip-path="url(#a797dbdef7)"><path style=" stroke:none;fill-rule:nonzero;fill:#f68f18;fill-opacity:1;" d="M 286.597656 145.863281 C 284.234375 147.78125 281.332031 149.722656 277.914062 151.371094 C 276.746094 151.953125 275.503906 152.480469 274.21875 152.976562 C 268.800781 155.066406 262.496094 156.410156 255.464844 156.980469 C 252.964844 157.171875 250.847656 157.277344 248.847656 157.34375 C 246.792969 157.394531 244.621094 157.40625 241.960938 157.394531 C 237.125 157.332031 232.101562 157.179688 227.84375 157.023438 L 227.328125 157.023438 C 222.871094 156.914062 218.265625 156.8125 213.902344 156.945312 C 211.710938 156.984375 209.488281 157.117188 207.304688 157.316406 C 204.925781 157.511719 202.898438 157.765625 201.046875 158.082031 C 197.230469 158.699219 193.621094 159.664062 190.3125 160.941406 C 186.800781 162.292969 183.636719 163.992188 180.902344 166.019531 C 177.480469 168.476562 174.757812 171.355469 172.671875 174.039062 C 175.03125 172.140625 177.910156 170.1875 181.300781 168.566406 C 182.472656 167.984375 183.707031 167.441406 184.992188 166.945312 C 190.410156 164.855469 196.722656 163.527344 203.753906 162.953125 C 206.09375 162.777344 208.273438 162.664062 210.371094 162.59375 C 212.726562 162.542969 215.066406 162.546875 217.257812 162.542969 C 222.09375 162.605469 227.085938 162.769531 231.375 162.914062 L 232.152344 162.941406 C 236.519531 163.039062 241.039062 163.136719 245.304688 163.007812 C 247.625 162.957031 249.855469 162.835938 251.921875 162.648438 C 254.398438 162.4375 256.390625 162.179688 258.183594 161.882812 C 261.996094 161.265625 265.609375 160.304688 268.917969 159.027344 C 272.429688 157.671875 275.585938 155.960938 278.328125 153.945312 C 281.769531 151.464844 284.503906 148.566406 286.597656 145.863281 "/></g></g></g><g clip-rule="nonzero" clip-path="url(#7f86641824)"><g clip-rule="nonzero" clip-path="url(#7a777a2031)"><g clip-rule="nonzero" clip-path="url(#588b2fe36a)"><path style=" stroke:none;fill-rule:nonzero;fill:#4caf50;fill-opacity:1;" d="M 294.628906 145.292969 C 294.523438 145.417969 294.167969 145.949219 293.488281 146.773438 C 292.738281 147.753906 291.589844 149.121094 290.089844 150.703125 C 287.066406 153.878906 282.511719 157.777344 276.359375 160.714844 C 270.238281 163.699219 262.511719 165.65625 253.71875 166.445312 C 251.519531 166.636719 249.273438 166.792969 246.96875 166.890625 C 244.660156 166.972656 242.300781 167.011719 239.917969 167.023438 C 235.15625 167.03125 230.273438 166.9375 225.371094 166.835938 C 220.503906 166.785156 215.628906 166.71875 210.925781 166.917969 C 208.585938 167 206.269531 167.152344 204.015625 167.378906 C 201.757812 167.589844 199.554688 167.863281 197.433594 168.253906 C 195.359375 168.605469 193.351562 169.035156 191.429688 169.5625 C 191.429688 169.5625 191.402344 169.574219 191.351562 169.578125 C 191.246094 169.601562 191.039062 169.664062 190.753906 169.742188 C 190.574219 169.792969 190.410156 169.839844 190.230469 169.894531 C 189.945312 169.972656 189.605469 170.085938 189.242188 170.210938 C 188.972656 170.296875 188.695312 170.386719 188.390625 170.503906 C 188.125 170.589844 187.835938 170.703125 187.546875 170.8125 C 186.921875 171.039062 186.226562 171.304688 185.5 171.617188 C 185.328125 171.6875 185.160156 171.765625 184.988281 171.832031 C 184.703125 171.960938 184.417969 172.085938 184.121094 172.21875 C 183.867188 172.332031 183.597656 172.453125 183.34375 172.566406 C 182.910156 172.78125 182.476562 172.984375 182.019531 173.226562 C 180.917969 173.765625 179.765625 174.390625 178.566406 175.117188 C 177.742188 175.601562 176.898438 176.125 176.042969 176.703125 C 175.445312 177.097656 174.84375 177.511719 174.234375 177.957031 C 174.207031 177.96875 174.191406 177.976562 174.183594 177.996094 C 164.164062 185.238281 153.042969 198.195312 150.621094 220.699219 C 150.992188 218.957031 157.003906 192.5 179.476562 181.175781 C 185.320312 178.59375 192.464844 176.890625 200.484375 176.171875 C 200.792969 176.152344 201.097656 176.117188 201.402344 176.097656 C 203.300781 175.941406 205.261719 175.8125 207.242188 175.738281 C 209.550781 175.65625 211.910156 175.621094 214.273438 175.597656 C 219.054688 175.597656 223.9375 175.691406 228.828125 175.800781 C 233.707031 175.847656 238.585938 175.925781 243.269531 175.71875 C 245.632812 175.644531 247.949219 175.496094 250.203125 175.269531 C 252.460938 175.054688 254.660156 174.785156 256.789062 174.40625 C 265.328125 172.960938 272.671875 170.011719 278.359375 165.90625 C 284.082031 161.851562 288.15625 156.703125 290.789062 152.507812 C 292.09375 150.425781 293.046875 148.554688 293.6875 147.289062 C 294.25 146.164062 294.546875 145.472656 294.628906 145.292969 "/></g></g></g><g clip-rule="nonzero" clip-path="url(#0dd64ff045)"><g clip-rule="nonzero" clip-path="url(#3e86eeb586)"><g clip-rule="nonzero" clip-path="url(#be4c155ac1)"><path style=" stroke:none;fill-rule:nonzero;fill:#f68f18;fill-opacity:1;" d="M 154.476562 228.613281 C 154.476562 228.613281 154.5625 228.308594 154.722656 227.730469 C 154.875 227.152344 155.113281 226.304688 155.4375 225.246094 C 156.074219 223.125 157.082031 220.117188 158.601562 216.667969 C 159.335938 214.933594 160.28125 213.121094 161.269531 211.21875 C 162.316406 209.335938 163.496094 207.40625 164.796875 205.46875 C 166.113281 203.535156 167.609375 201.644531 169.183594 199.773438 C 170.800781 197.898438 172.488281 196.191406 174.40625 194.503906 C 176.199219 192.914062 178.226562 191.441406 180.273438 190.15625 C 182.351562 188.898438 184.476562 187.773438 186.609375 186.832031 C 188.761719 185.9375 190.878906 185.125 192.941406 184.492188 C 195.003906 183.863281 196.980469 183.328125 198.828125 182.894531 C 202.527344 182.050781 205.671875 181.492188 207.875 181.125 C 210.085938 180.753906 211.347656 180.539062 211.347656 180.539062 C 211.347656 180.539062 211.027344 180.535156 210.425781 180.527344 C 209.828125 180.527344 208.949219 180.488281 207.824219 180.515625 C 205.578125 180.539062 202.363281 180.652344 198.519531 181.15625 C 196.597656 181.40625 194.515625 181.753906 192.339844 182.273438 C 190.160156 182.78125 187.886719 183.453125 185.585938 184.328125 C 183.304688 185.242188 180.957031 186.273438 178.730469 187.617188 C 176.507812 188.976562 174.359375 190.472656 172.3125 192.253906 C 170.417969 193.960938 168.53125 195.910156 166.902344 197.871094 C 165.253906 199.851562 163.824219 201.945312 162.515625 204.007812 C 159.953125 208.171875 158.121094 212.359375 156.945312 216.050781 C 155.730469 219.734375 155.144531 222.902344 154.839844 225.125 C 154.660156 226.234375 154.613281 227.105469 154.558594 227.703125 C 154.503906 228.296875 154.476562 228.613281 154.476562 228.613281 "/></g></g></g><g clip-rule="nonzero" clip-path="url(#311efbccb4)"><g clip-rule="nonzero" clip-path="url(#fef769a9fe)"><g clip-rule="nonzero" clip-path="url(#fdb0ee9e9b)"><path style=" stroke:none;fill-rule:nonzero;fill:#4caf50;fill-opacity:1;" d="M 188.390625 170.503906 C 187.953125 170.65625 187.453125 170.832031 186.933594 171.03125 L 186.789062 171.089844 C 186.386719 171.246094 185.957031 171.425781 185.5 171.617188 C 186.226562 171.304688 186.921875 171.039062 187.546875 170.8125 C 187.835938 170.703125 188.125 170.589844 188.390625 170.503906 "/></g></g></g><g clip-rule="nonzero" clip-path="url(#c3cd2c4546)"><g clip-rule="nonzero" clip-path="url(#17ad5319ec)"><g clip-rule="nonzero" clip-path="url(#d06e81731d)"><path style=" stroke:none;fill-rule:nonzero;fill:#4caf50;fill-opacity:1;" d="M 187.546875 170.8125 C 187.34375 170.890625 187.136719 170.957031 186.933594 171.03125 L 186.789062 171.089844 C 182.699219 172.570312 179 174.472656 175.84375 176.746094 C 175.296875 177.136719 174.757812 177.542969 174.234375 177.957031 C 174.84375 177.511719 175.445312 177.097656 176.042969 176.703125 C 176.898438 176.125 177.742188 175.601562 178.566406 175.117188 C 179.765625 174.390625 180.917969 173.765625 182.019531 173.226562 C 182.460938 172.988281 182.910156 172.78125 183.34375 172.566406 C 183.597656 172.453125 183.867188 172.332031 184.121094 172.21875 C 184.417969 172.085938 184.703125 171.960938 184.988281 171.832031 C 185.160156 171.765625 185.328125 171.6875 185.5 171.617188 C 186.226562 171.304688 186.921875 171.039062 187.546875 170.8125 "/></g></g></g><path style=" stroke:none;fill-rule:nonzero;fill:#f68f18;fill-opacity:1;" d="M 109.066406 186.117188 C 109.128906 185.929688 109.144531 185.722656 109.097656 185.515625 C 108.960938 184.90625 108.359375 184.523438 107.75 184.660156 C 107.707031 184.671875 107.667969 184.675781 107.625 184.683594 C 108.039062 185.226562 108.519531 185.707031 109.066406 186.117188 Z M 109.066406 186.117188 "/><path style=" stroke:none;fill-rule:nonzero;fill:#f68f18;fill-opacity:1;" d="M 105.089844 185.335938 C 105.117188 185.152344 105.175781 184.976562 105.269531 184.816406 C 103.582031 184.648438 102.179688 183.925781 101.140625 183.175781 C 100.550781 182.75 100.085938 182.320312 99.777344 182.003906 C 99.625 181.84375 99.507812 181.714844 99.433594 181.628906 C 99.394531 181.582031 99.371094 181.550781 99.355469 181.53125 C 99.34375 181.519531 99.339844 181.515625 99.335938 181.511719 C 99.265625 181.417969 99.183594 181.339844 99.09375 181.277344 C 97.847656 180.027344 96.601562 178.773438 95.351562 177.523438 C 95.300781 177.472656 95.238281 177.425781 95.160156 177.378906 C 94.976562 177.222656 94.65625 176.972656 94.21875 176.714844 C 93.546875 176.320312 92.585938 175.898438 91.414062 175.894531 C 90.273438 175.886719 88.972656 176.351562 87.859375 177.46875 C 86.734375 178.589844 85.75 180.304688 84.914062 182.890625 C 84.722656 183.484375 85.046875 184.121094 85.640625 184.3125 C 85.757812 184.347656 85.875 184.367188 85.988281 184.367188 C 86.464844 184.367188 86.910156 184.0625 87.0625 183.582031 C 87.824219 181.214844 88.691406 179.824219 89.449219 179.074219 C 90.21875 178.328125 90.828125 178.167969 91.414062 178.15625 C 91.679688 178.15625 91.945312 178.203125 92.203125 178.277344 C 89.9375 180.992188 88.664062 184.332031 87.496094 187.714844 C 87.457031 187.828125 87.433594 187.941406 87.421875 188.050781 C 87.277344 188.519531 87.328125 189.042969 87.601562 189.492188 C 87.601562 189.492188 87.605469 189.496094 87.613281 189.507812 C 87.699219 189.652344 88.328125 190.847656 88.320312 192.503906 C 88.320312 193.382812 88.15625 194.402344 87.644531 195.550781 C 87.128906 196.695312 86.253906 197.980469 84.769531 199.351562 C 84.050781 200.011719 84.003906 201.128906 84.667969 201.84375 C 85.015625 202.222656 85.488281 202.414062 85.964844 202.414062 C 86.390625 202.414062 86.820312 202.257812 87.160156 201.945312 C 88.949219 200.296875 90.136719 198.617188 90.863281 196.996094 C 91.59375 195.378906 91.855469 193.832031 91.851562 192.503906 C 91.851562 192.132812 91.832031 191.777344 91.796875 191.441406 C 92.140625 191.621094 92.859375 192.046875 93.527344 192.71875 C 93.984375 193.175781 94.421875 193.742188 94.742188 194.417969 C 95.0625 195.097656 95.273438 195.890625 95.277344 196.875 C 95.277344 197.738281 95.109375 198.757812 94.65625 199.976562 C 94.316406 200.890625 94.78125 201.90625 95.691406 202.246094 C 95.894531 202.324219 96.105469 202.359375 96.308594 202.359375 C 97.027344 202.359375 97.699219 201.921875 97.964844 201.210938 C 98.546875 199.648438 98.808594 198.199219 98.808594 196.875 C 98.808594 195.3125 98.441406 193.9375 97.882812 192.804688 C 97.046875 191.097656 95.832031 189.945312 94.839844 189.203125 C 94.578125 189.007812 94.328125 188.839844 94.101562 188.699219 C 94.9375 185.757812 96.285156 184.710938 98.285156 183.707031 C 98.660156 184.082031 99.175781 184.542969 99.816406 185.007812 C 101.246094 186.039062 103.347656 187.101562 105.980469 187.117188 C 105.765625 186.882812 105.558594 186.636719 105.367188 186.382812 C 105.136719 186.082031 105.039062 185.710938 105.089844 185.335938 Z M 105.089844 185.335938 "/><path style=" stroke:none;fill-rule:nonzero;fill:#f68f18;fill-opacity:1;" d="M 101.5 174.15625 C 101.867188 174.367188 102.179688 174.636719 102.4375 174.96875 C 102.695312 175.300781 102.882812 175.671875 102.992188 176.078125 C 103.105469 176.484375 103.132812 176.898438 103.082031 177.316406 C 103.027344 177.734375 102.898438 178.125 102.691406 178.492188 C 102.480469 178.855469 102.210938 179.167969 101.878906 179.429688 C 101.546875 179.6875 101.175781 179.871094 100.769531 179.984375 C 100.363281 180.09375 99.949219 180.125 99.53125 180.070312 C 99.113281 180.019531 98.722656 179.886719 98.355469 179.679688 C 97.992188 179.472656 97.679688 179.199219 97.417969 178.867188 C 97.160156 178.535156 96.976562 178.167969 96.863281 177.757812 C 96.753906 177.351562 96.722656 176.941406 96.777344 176.523438 C 96.828125 176.105469 96.960938 175.714844 97.167969 175.347656 C 97.375 174.980469 97.648438 174.667969 97.980469 174.410156 C 98.3125 174.152344 98.679688 173.964844 99.085938 173.855469 C 99.496094 173.742188 99.90625 173.714844 100.324219 173.765625 C 100.742188 173.820312 101.132812 173.949219 101.5 174.15625 Z M 101.5 174.15625 "/><path style=" stroke:none;fill-rule:nonzero;fill:#f68f18;fill-opacity:1;" d="M 117.820312 180.925781 C 118.242188 180.945312 118.644531 181.039062 119.023438 181.21875 C 119.40625 181.394531 119.742188 181.636719 120.027344 181.945312 C 120.3125 182.253906 120.53125 182.609375 120.675781 183.003906 C 120.820312 183.398438 120.886719 183.808594 120.867188 184.226562 C 120.851562 184.648438 120.753906 185.050781 120.578125 185.433594 C 120.402344 185.816406 120.160156 186.148438 119.847656 186.4375 C 119.539062 186.722656 119.1875 186.9375 118.792969 187.082031 C 118.394531 187.226562 117.988281 187.292969 117.566406 187.277344 C 117.144531 187.257812 116.746094 187.164062 116.363281 186.984375 C 115.980469 186.808594 115.644531 186.566406 115.359375 186.257812 C 115.074219 185.949219 114.859375 185.59375 114.710938 185.199219 C 114.566406 184.804688 114.503906 184.394531 114.519531 183.976562 C 114.535156 183.554688 114.632812 183.152344 114.808594 182.769531 C 114.984375 182.386719 115.230469 182.054688 115.539062 181.765625 C 115.847656 181.480469 116.199219 181.265625 116.59375 181.121094 C 116.992188 180.976562 117.398438 180.910156 117.820312 180.925781 Z M 117.820312 180.925781 "/><g clip-rule="nonzero" clip-path="url(#8600b36770)"><path style=" stroke:none;fill-rule:nonzero;fill:#f68f18;fill-opacity:1;" d="M 123.941406 187.445312 C 122.914062 187.070312 122.027344 187.03125 121.640625 187.027344 C 121.496094 187.007812 121.363281 187.007812 121.257812 187.035156 C 119.554688 187.433594 117.851562 187.832031 116.148438 188.230469 C 115.945312 188.242188 115.65625 188.257812 115.3125 188.257812 C 114.335938 188.257812 112.886719 188.144531 111.429688 187.65625 C 110.578125 187.367188 109.726562 186.960938 108.945312 186.378906 C 108.382812 185.964844 107.859375 185.457031 107.390625 184.84375 C 107.363281 184.808594 107.335938 184.777344 107.308594 184.746094 C 106.914062 184.335938 106.269531 184.277344 105.804688 184.628906 C 105.722656 184.691406 105.652344 184.765625 105.59375 184.84375 C 105.292969 185.238281 105.277344 185.796875 105.589844 186.210938 C 105.835938 186.535156 106.09375 186.832031 106.363281 187.109375 C 107.679688 188.472656 109.238281 189.304688 110.710938 189.796875 C 112.492188 190.390625 114.167969 190.515625 115.3125 190.515625 C 115.328125 190.515625 115.347656 190.515625 115.363281 190.515625 C 116.476562 192.289062 117.121094 193.753906 116.652344 196.171875 C 116.292969 195.949219 115.902344 195.734375 115.480469 195.546875 C 114.675781 195.191406 113.753906 194.921875 112.730469 194.917969 C 111.488281 194.90625 110.121094 195.371094 109.007812 196.367188 C 107.886719 197.363281 106.984375 198.804688 106.246094 200.777344 C 105.90625 201.691406 106.375 202.707031 107.289062 203.046875 C 107.492188 203.125 107.699219 203.160156 107.902344 203.160156 C 108.621094 203.160156 109.292969 202.71875 109.558594 202.007812 C 110.15625 200.390625 110.8125 199.480469 111.34375 199.015625 C 111.882812 198.558594 112.261719 198.464844 112.730469 198.449219 C 113.113281 198.449219 113.566406 198.558594 114.042969 198.773438 C 114.757812 199.085938 115.488281 199.625 116.003906 200.085938 C 116.261719 200.3125 116.472656 200.523438 116.613281 200.667969 C 116.679688 200.738281 116.734375 200.792969 116.765625 200.832031 C 116.78125 200.847656 116.792969 200.859375 116.800781 200.867188 C 116.800781 200.871094 116.800781 200.871094 116.800781 200.871094 C 116.800781 200.871094 116.804688 200.871094 116.804688 200.871094 C 117.246094 201.386719 117.921875 201.585938 118.542969 201.441406 C 118.5 201.835938 118.476562 202.269531 118.476562 202.75 C 118.472656 205.121094 119.097656 208.503906 121.433594 212.511719 C 121.761719 213.074219 122.351562 213.390625 122.960938 213.390625 C 123.261719 213.390625 123.566406 213.3125 123.847656 213.152344 C 124.6875 212.660156 124.976562 211.582031 124.484375 210.738281 C 122.445312 207.222656 122.007812 204.515625 122.007812 202.75 C 122.007812 201.917969 122.105469 201.289062 122.199219 200.894531 C 122.242188 200.695312 122.285156 200.554688 122.3125 200.472656 C 122.328125 200.433594 122.335938 200.40625 122.339844 200.398438 L 122.339844 200.394531 C 122.375 200.320312 122.398438 200.246094 122.417969 200.167969 C 122.464844 200.066406 122.507812 199.957031 122.53125 199.839844 C 123.300781 196.488281 123.964844 193.117188 123.585938 189.75 C 123.667969 189.792969 123.75 189.835938 123.832031 189.886719 C 124.265625 190.15625 124.660156 190.519531 124.964844 191.078125 C 125.273438 191.640625 125.5 192.421875 125.5 193.5625 C 125.5 194.378906 125.382812 195.371094 125.085938 196.566406 C 124.933594 197.171875 125.304688 197.78125 125.910156 197.933594 C 126 197.957031 126.09375 197.96875 126.183594 197.96875 C 126.6875 197.96875 127.152344 197.625 127.277344 197.109375 C 127.609375 195.769531 127.761719 194.597656 127.761719 193.5625 C 127.761719 192.121094 127.460938 190.933594 126.949219 189.996094 C 126.183594 188.585938 124.972656 187.820312 123.941406 187.445312 Z M 123.941406 187.445312 "/></g><g clip-rule="nonzero" clip-path="url(#93dc52e513)"><path style=" stroke:none;fill-rule:nonzero;fill:#f68f18;fill-opacity:1;" d="M 82.054688 202.757812 L 106.230469 202.757812 L 106.230469 214.058594 L 82.054688 214.058594 Z M 82.054688 202.757812 "/></g><g style="fill:#4caf50;fill-opacity:1;"><g transform="translate(127.991276, 222.173516)"><path style="stroke:none" d="M 29.28125 -26.734375 L 31.75 -25.796875 C 31.6875 -25.742188 31.300781 -24.925781 30.59375 -23.34375 C 29.882812 -21.757812 29.117188 -20.101562 28.296875 -18.375 C 27.484375 -16.644531 26.328125 -14.675781 24.828125 -12.46875 C 23.328125 -10.269531 21.785156 -8.332031 20.203125 -6.65625 C 18.617188 -4.988281 16.722656 -3.585938 14.515625 -2.453125 C 12.304688 -1.328125 10.070312 -0.789062 7.8125 -0.84375 C 5.257812 -0.957031 3.347656 -1.988281 2.078125 -3.9375 C 0.804688 -5.894531 0.128906 -8.328125 0.046875 -11.234375 C -0.0351562 -14.148438 0.0625 -17.050781 0.34375 -19.9375 C 0.625 -22.832031 0.945312 -25.523438 1.3125 -28.015625 C 1.6875 -30.503906 1.785156 -32.03125 1.609375 -32.59375 C 1.953125 -32.644531 2.40625 -32.710938 2.96875 -32.796875 C 3.53125 -32.890625 4.53125 -32.890625 5.96875 -32.796875 C 7.414062 -32.710938 8.648438 -32.457031 9.671875 -32.03125 C 10.691406 -31.613281 11.566406 -30.8125 12.296875 -29.625 C 13.035156 -28.4375 13.265625 -26.90625 12.984375 -25.03125 C 11.453125 -14.675781 11.707031 -9.101562 13.75 -8.3125 C 14.59375 -7.976562 15.753906 -8.320312 17.234375 -9.34375 C 19.046875 -10.582031 20.953125 -12.660156 22.953125 -15.578125 C 24.960938 -18.492188 26.535156 -21.082031 27.671875 -23.34375 Z M 12.71875 -39.375 C 11.476562 -38.132812 9.984375 -37.515625 8.234375 -37.515625 C 6.484375 -37.515625 4.984375 -38.132812 3.734375 -39.375 C 2.492188 -40.625 1.875 -42.125 1.875 -43.875 C 1.875 -45.632812 2.492188 -47.132812 3.734375 -48.375 C 4.984375 -49.625 6.484375 -50.25 8.234375 -50.25 C 9.984375 -50.25 11.476562 -49.625 12.71875 -48.375 C 13.96875 -47.132812 14.59375 -45.632812 14.59375 -43.875 C 14.59375 -42.125 13.96875 -40.625 12.71875 -39.375 Z M 12.71875 -39.375 "/></g></g><g style="fill:#f68f18;fill-opacity:1;"><g transform="translate(129.470738, 227.630424)"><path style="stroke:none" d=""/></g></g><g style="fill:#f68f18;fill-opacity:1;"><g transform="translate(150.535074, 226.152539)"><path style="stroke:none" d="M 8.453125 -1.15625 C 7.773438 -0.78125 7.015625 -0.566406 6.171875 -0.515625 C 6.035156 -0.453125 5.800781 -0.410156 5.46875 -0.390625 L 5.40625 -0.375 C 1.144531 -0.132812 -1.296875 -10.21875 -1.921875 -30.625 C -2.023438 -34.800781 -2.050781 -40.117188 -2 -46.578125 C -1.851562 -51.191406 -1.578125 -54.003906 -1.171875 -55.015625 C -0.691406 -56.128906 0.109375 -56.703125 1.234375 -56.734375 C 2.828125 -56.847656 4.476562 -56.398438 6.1875 -55.390625 C 7.613281 -54.597656 8.953125 -53.375 10.203125 -51.71875 C 11.566406 -49.695312 12.550781 -47.296875 13.15625 -44.515625 C 14.320312 -39.378906 14.03125 -34.914062 12.28125 -31.125 C 11.539062 -29.53125 10.601562 -28.078125 9.46875 -26.765625 C 9.601562 -21.554688 9.859375 -16.96875 10.234375 -13 C 10.523438 -10.769531 10.867188 -9.488281 11.265625 -9.15625 C 11.671875 -8.832031 12.546875 -9.140625 13.890625 -10.078125 C 15.722656 -11.421875 17.425781 -13.125 19 -15.1875 C 20.570312 -17.25 21.6875 -18.960938 22.34375 -20.328125 L 23.328125 -22.375 L 25.359375 -21.75 C 25.253906 -21.3125 24.71875 -20.222656 23.75 -18.484375 C 22.78125 -16.753906 21.566406 -14.753906 20.109375 -12.484375 C 18.648438 -10.222656 16.84375 -7.992188 14.6875 -5.796875 C 12.53125 -3.597656 10.453125 -2.050781 8.453125 -1.15625 Z M 9.390625 -30.0625 C 10.828125 -32.382812 11.632812 -34.960938 11.8125 -37.796875 L 11.78125 -38.21875 C 11.757812 -38.457031 11.753906 -38.703125 11.765625 -38.953125 C 11.773438 -39.210938 11.75 -39.566406 11.6875 -40.015625 C 11.632812 -40.460938 11.566406 -40.90625 11.484375 -41.34375 C 11.410156 -41.78125 11.304688 -42.25 11.171875 -42.75 C 11.046875 -43.257812 10.90625 -43.753906 10.75 -44.234375 C 10.601562 -44.722656 10.394531 -45.207031 10.125 -45.6875 C 9.863281 -46.164062 9.578125 -46.601562 9.265625 -47 C 9.234375 -40.738281 9.273438 -35.09375 9.390625 -30.0625 Z M 9.390625 -30.0625 "/></g></g><g style="fill:#f68f18;fill-opacity:1;"><g transform="translate(170.8216, 224.729226)"><path style="stroke:none" d="M 38.359375 -25.609375 L 40.65625 -25.78125 C 40.507812 -25.113281 40.285156 -24.238281 39.984375 -23.15625 C 39.691406 -22.070312 38.984375 -20.140625 37.859375 -17.359375 C 36.734375 -14.578125 35.492188 -12.09375 34.140625 -9.90625 C 32.796875 -7.71875 30.941406 -5.691406 28.578125 -3.828125 C 26.210938 -1.972656 23.703125 -0.953125 21.046875 -0.765625 C 19.304688 -0.648438 17.910156 -1.179688 16.859375 -2.359375 C 15.816406 -3.535156 15.140625 -4.976562 14.828125 -6.6875 C 14.523438 -8.40625 14.359375 -10.53125 14.328125 -13.0625 C 11.273438 -9.65625 7.894531 -8.125 4.1875 -8.46875 C 1.882812 -8.738281 0.335938 -9.785156 -0.453125 -11.609375 C -1.253906 -13.429688 -1.25 -15.453125 -0.4375 -17.671875 C 0.375 -19.898438 1.742188 -21.710938 3.671875 -23.109375 C 6.847656 -25.398438 10.566406 -26.34375 14.828125 -25.9375 C 14.804688 -28.101562 14.648438 -29.671875 14.359375 -30.640625 C 14.535156 -30.691406 14.765625 -30.75 15.046875 -30.8125 C 15.328125 -30.882812 15.875 -30.960938 16.6875 -31.046875 C 17.507812 -31.128906 18.285156 -31.148438 19.015625 -31.109375 C 19.753906 -31.066406 20.566406 -30.890625 21.453125 -30.578125 C 22.347656 -30.265625 23.117188 -29.8125 23.765625 -29.21875 C 24.421875 -28.625 24.96875 -27.753906 25.40625 -26.609375 C 25.84375 -25.460938 26.046875 -24.09375 26.015625 -22.5 C 25.992188 -12.71875 26.875 -7.863281 28.65625 -7.9375 C 29.351562 -7.9375 30.175781 -8.554688 31.125 -9.796875 C 32.851562 -12.035156 34.316406 -14.476562 35.515625 -17.125 C 36.710938 -19.769531 37.492188 -21.859375 37.859375 -23.390625 Z M 6.390625 -16.453125 C 6.472656 -14.066406 7.539062 -13.296875 9.59375 -14.140625 C 11.238281 -14.878906 12.882812 -16.265625 14.53125 -18.296875 C 14.582031 -20.097656 14.644531 -21.445312 14.71875 -22.34375 C 13.976562 -22.289062 13.222656 -22.175781 12.453125 -22 C 11.691406 -21.832031 10.789062 -21.554688 9.75 -21.171875 C 8.71875 -20.796875 7.890625 -20.195312 7.265625 -19.375 C 6.648438 -18.5625 6.359375 -17.585938 6.390625 -16.453125 Z M 6.390625 -16.453125 "/></g></g><g style="fill:#f68f18;fill-opacity:1;"><g transform="translate(207.182914, 222.178098)"><path style="stroke:none" d="M 27.640625 -24.234375 L 29.1875 -23.640625 C 27.414062 -19.472656 26.148438 -16.628906 25.390625 -15.109375 C 24.796875 -13.710938 24.15625 -12.535156 23.46875 -11.578125 C 22.863281 -10.796875 22.359375 -10.222656 21.953125 -9.859375 C 21.910156 -9.816406 21.832031 -9.753906 21.71875 -9.671875 C 21.613281 -9.585938 21.539062 -9.519531 21.5 -9.46875 C 21.457031 -9.425781 21.363281 -9.375 21.21875 -9.3125 C 21.082031 -9.257812 21 -9.207031 20.96875 -9.15625 C 20.914062 -9.15625 20.796875 -9.101562 20.609375 -9 L 20.40625 -8.984375 L 20.34375 -8.90625 L 20.0625 -8.875 L 19.921875 -8.875 L 19.859375 -8.859375 L 19.640625 -8.84375 C 19.316406 -8.820312 19.023438 -8.898438 18.765625 -9.078125 C 18.429688 -9.203125 18.179688 -9.421875 18.015625 -9.734375 C 17.867188 -9.910156 17.644531 -10.410156 17.34375 -11.234375 C 17.207031 -11.878906 17.097656 -12.785156 17.015625 -13.953125 C 16.984375 -15.140625 16.984375 -16.859375 17.015625 -19.109375 C 17.023438 -20.242188 17.015625 -21.070312 16.984375 -21.59375 C 16.910156 -22.625 16.832031 -23.316406 16.75 -23.671875 C 16.695312 -23.859375 16.578125 -23.992188 16.390625 -24.078125 C 16.234375 -24.160156 16.046875 -24.070312 15.828125 -23.8125 L 15.421875 -23.375 C 15.128906 -22.9375 14.84375 -22.351562 14.5625 -21.625 C 14.375 -21.1875 14.117188 -20.535156 13.796875 -19.671875 C 13.222656 -17.785156 12.863281 -16.535156 12.71875 -15.921875 C 12.238281 -14.097656 11.804688 -12.164062 11.421875 -10.125 L 10.96875 -7.75 C 10.28125 -4.039062 8.375 -2.03125 5.25 -1.71875 C 3.332031 -1.53125 1.882812 -2.164062 0.90625 -3.625 C -0.0625 -5.082031 -0.566406 -7 -0.609375 -9.375 C -0.660156 -11.75 -0.628906 -14.328125 -0.515625 -17.109375 C -0.398438 -19.890625 -0.25 -22.488281 -0.0625 -24.90625 C 0.113281 -27.320312 -0.0390625 -29.328125 -0.53125 -30.921875 C -0.394531 -30.984375 -0.1875 -31.046875 0.09375 -31.109375 C 0.375 -31.179688 0.882812 -31.265625 1.625 -31.359375 C 2.363281 -31.460938 3.078125 -31.476562 3.765625 -31.40625 C 4.453125 -31.332031 5.210938 -31.101562 6.046875 -30.71875 C 6.878906 -30.332031 7.597656 -29.773438 8.203125 -29.046875 C 8.816406 -28.316406 9.320312 -27.257812 9.71875 -25.875 C 10.125 -24.488281 10.347656 -22.859375 10.390625 -20.984375 L 10.40625 -20.625 C 12.550781 -25 14.5625 -27.234375 16.4375 -27.328125 C 17.75 -27.367188 18.570312 -26.378906 18.90625 -24.359375 C 19.238281 -22.335938 19.273438 -20.445312 19.015625 -18.6875 C 19.046875 -18.3125 19.035156 -17.796875 18.984375 -17.140625 L 19.015625 -16.71875 C 18.960938 -16.15625 18.929688 -15.257812 18.921875 -14.03125 C 19.003906 -12.945312 19.078125 -12.195312 19.140625 -11.78125 C 19.265625 -11.414062 19.351562 -11.1875 19.40625 -11.09375 L 19.484375 -11.015625 L 19.5625 -10.96875 L 19.703125 -10.96875 L 19.90625 -11.046875 L 20.046875 -11.0625 L 20.125 -11.0625 C 20.113281 -11.113281 20.15625 -11.144531 20.25 -11.15625 C 20.289062 -11.195312 20.335938 -11.222656 20.390625 -11.234375 C 20.484375 -11.285156 20.550781 -11.316406 20.59375 -11.328125 L 20.71875 -11.46875 C 20.8125 -11.519531 20.882812 -11.570312 20.9375 -11.625 C 21.0625 -11.726562 21.445312 -12.15625 22.09375 -12.90625 C 22.820312 -13.894531 23.453125 -14.972656 23.984375 -16.140625 Z M 27.640625 -24.234375 "/></g></g><g style="fill:#f68f18;fill-opacity:1;"><g transform="translate(230.487838, 220.543012)"><path style="stroke:none" d="M 40.921875 -27.0625 L 41.671875 -25.34375 C 37.253906 -22.6875 32.582031 -19.566406 27.65625 -15.984375 C 29.8125 -1.359375 30.898438 8.789062 30.921875 14.46875 C 30.960938 23.03125 29.34375 27.445312 26.0625 27.71875 C 25.507812 27.851562 24.867188 27.910156 24.140625 27.890625 C 23.421875 27.878906 22.273438 27.625 20.703125 27.125 C 19.140625 26.625 17.578125 25.835938 16.015625 24.765625 C 14.460938 23.691406 12.660156 21.957031 10.609375 19.5625 C 8.566406 17.164062 6.625 14.269531 4.78125 10.875 C 1.6875 5.6875 5.96875 -1.707031 17.625 -11.3125 C 17.425781 -12.71875 17.300781 -13.796875 17.25 -14.546875 C 15.6875 -12.734375 13.707031 -11.117188 11.3125 -9.703125 C 8.925781 -8.296875 6.613281 -7.703125 4.375 -7.921875 C 2.007812 -8.179688 0.421875 -9.242188 -0.390625 -11.109375 C -1.210938 -12.984375 -1.203125 -15.054688 -0.359375 -17.328125 C 0.472656 -19.597656 1.867188 -21.457031 3.828125 -22.90625 C 5.742188 -24.3125 7.988281 -25.242188 10.5625 -25.703125 C 13.144531 -26.171875 14.847656 -26.242188 15.671875 -25.921875 C 15.316406 -28.304688 15.019531 -29.863281 14.78125 -30.59375 C 14.914062 -30.65625 15.109375 -30.71875 15.359375 -30.78125 C 15.617188 -30.84375 16.109375 -30.929688 16.828125 -31.046875 C 17.554688 -31.171875 18.257812 -31.207031 18.9375 -31.15625 C 19.625 -31.113281 20.410156 -30.9375 21.296875 -30.625 C 22.191406 -30.320312 22.976562 -29.875 23.65625 -29.28125 C 24.34375 -28.695312 24.972656 -27.800781 25.546875 -26.59375 C 26.128906 -25.382812 26.550781 -23.945312 26.8125 -22.28125 L 27.28125 -18.5625 C 29.476562 -20.03125 31.710938 -21.476562 33.984375 -22.90625 C 36.265625 -24.332031 37.992188 -25.367188 39.171875 -26.015625 Z M 6.5625 -16.046875 C 6.675781 -13.703125 7.992188 -12.972656 10.515625 -13.859375 C 12.816406 -14.722656 14.851562 -16.226562 16.625 -18.375 C 16.675781 -18.414062 16.71875 -18.46875 16.75 -18.53125 L 16.75 -18.59375 C 16.5 -20.28125 16.316406 -21.539062 16.203125 -22.375 C 15.453125 -22.320312 14.625 -22.191406 13.71875 -21.984375 C 12.820312 -21.785156 11.773438 -21.476562 10.578125 -21.0625 C 9.378906 -20.65625 8.398438 -20.007812 7.640625 -19.125 C 6.878906 -18.25 6.519531 -17.222656 6.5625 -16.046875 Z M 19.421875 12.1875 C 19.210938 6.601562 18.707031 -0.179688 17.90625 -8.171875 C 9.675781 -0.679688 6.679688 4.914062 8.921875 8.625 C 11.097656 12.09375 13.332031 14.375 15.625 15.46875 C 17.863281 16.59375 19.101562 15.851562 19.34375 13.25 C 19.414062 12.914062 19.441406 12.5625 19.421875 12.1875 Z M 19.421875 12.1875 "/></g></g><g style="fill:#f68f18;fill-opacity:1;"><g transform="translate(265.094253, 218.115009)"><path style="stroke:none" d="M 36.234375 -25.671875 C 36.234375 -25.671875 36.742188 -25.753906 37.765625 -25.921875 C 38.460938 -25.929688 38.742188 -25.601562 38.609375 -24.9375 C 38.609375 -24.882812 38.523438 -24.347656 38.359375 -23.328125 C 38.203125 -22.304688 38.03125 -21.257812 37.84375 -20.1875 C 37.664062 -19.113281 37.347656 -17.757812 36.890625 -16.125 C 36.441406 -14.5 35.960938 -12.960938 35.453125 -11.515625 C 34.941406 -10.066406 34.257812 -8.5625 33.40625 -7 C 32.550781 -5.4375 31.617188 -4.085938 30.609375 -2.953125 C 29.609375 -1.828125 28.394531 -0.875 26.96875 -0.09375 C 25.550781 0.6875 24.023438 1.132812 22.390625 1.25 C 17.898438 1.570312 15.425781 -2.207031 14.96875 -10.09375 C 12.832031 -6.21875 9.90625 -4.242188 6.1875 -4.171875 C 4.082031 -4.117188 2.445312 -4.863281 1.28125 -6.40625 C 0.113281 -7.945312 -0.585938 -9.914062 -0.828125 -12.3125 C -1.078125 -14.71875 -1.164062 -17.125 -1.09375 -19.53125 C -1.019531 -21.9375 -0.898438 -24.175781 -0.734375 -26.25 C -0.578125 -28.332031 -0.585938 -29.601562 -0.765625 -30.0625 C -0.484375 -30.132812 -0.113281 -30.21875 0.34375 -30.3125 C 0.8125 -30.414062 1.640625 -30.472656 2.828125 -30.484375 C 4.023438 -30.503906 5.0625 -30.367188 5.9375 -30.078125 C 6.8125 -29.785156 7.582031 -29.171875 8.25 -28.234375 C 8.925781 -27.296875 9.195312 -26.039062 9.0625 -24.46875 C 8.457031 -15.820312 8.722656 -11.09375 9.859375 -10.28125 C 10.554688 -9.820312 11.597656 -10.414062 12.984375 -12.0625 C 14.316406 -13.664062 15.207031 -15.84375 15.65625 -18.59375 C 16.101562 -21.351562 16.207031 -23.707031 15.96875 -25.65625 L 15.625 -28.625 C 15.8125 -28.675781 16.039062 -28.734375 16.3125 -28.796875 C 16.59375 -28.867188 17.144531 -28.945312 17.96875 -29.03125 C 18.789062 -29.113281 19.5625 -29.132812 20.28125 -29.09375 C 21.007812 -29.050781 21.832031 -28.867188 22.75 -28.546875 C 23.664062 -28.234375 24.441406 -27.78125 25.078125 -27.1875 C 25.710938 -26.59375 26.253906 -25.726562 26.703125 -24.59375 C 27.148438 -23.457031 27.363281 -22.085938 27.34375 -20.484375 C 27.351562 -19.203125 27.316406 -17.429688 27.234375 -15.171875 C 27.109375 -9.566406 27.28125 -6.40625 27.75 -5.6875 C 28.320312 -4.925781 29.398438 -5.613281 30.984375 -7.75 C 32.410156 -9.675781 33.554688 -12.140625 34.421875 -15.140625 C 35.285156 -18.140625 35.789062 -20.660156 35.9375 -22.703125 Z M 36.234375 -25.671875 "/></g></g><g style="fill:#4caf50;fill-opacity:1;"><g transform="translate(149.240508, 248.723092)"><path style="stroke:none" d="M 3.203125 -2.140625 L 5.09375 -2.140625 L 5.09375 0 L 0.34375 0 L 0.34375 -11.09375 L 3.203125 -11.09375 Z M 3.203125 -2.140625 "/></g></g><g style="fill:#4caf50;fill-opacity:1;"><g transform="translate(156.628571, 248.723092)"><path style="stroke:none" d="M 3.15625 0 L 0.296875 0 L 0.296875 -11.09375 L 3.15625 -11.09375 Z M 3.15625 0 "/></g></g><g style="fill:#4caf50;fill-opacity:1;"><g transform="translate(162.290384, 248.723092)"><path style="stroke:none" d="M 3.75 -11.328125 C 4.863281 -11.328125 5.691406 -11.101562 6.234375 -10.65625 C 6.785156 -10.207031 7.0625 -9.394531 7.0625 -8.21875 L 7.0625 -7.015625 L 4.203125 -7.015625 L 4.203125 -8.78125 C 4.203125 -9.039062 4.160156 -9.21875 4.078125 -9.3125 C 4.003906 -9.414062 3.894531 -9.46875 3.75 -9.46875 C 3.382812 -9.46875 3.203125 -9.207031 3.203125 -8.6875 L 3.203125 -2.5 C 3.203125 -2.226562 3.25 -2.019531 3.34375 -1.875 C 3.4375 -1.738281 3.570312 -1.671875 3.75 -1.671875 C 3.945312 -1.671875 4.085938 -1.734375 4.171875 -1.859375 C 4.253906 -1.984375 4.296875 -2.179688 4.296875 -2.453125 L 4.296875 -4.40625 L 3.703125 -4.40625 L 3.703125 -5.984375 L 7.15625 -5.984375 L 7.15625 0 L 5.28125 0 L 5.0625 -0.78125 C 4.8125 -0.445312 4.5 -0.191406 4.125 -0.015625 C 3.75 0.148438 3.34375 0.234375 2.90625 0.234375 C 2 0.234375 1.34375 -0.0703125 0.9375 -0.6875 C 0.539062 -1.300781 0.34375 -2.046875 0.34375 -2.921875 L 0.34375 -7.96875 C 0.34375 -9.15625 0.625 -10.007812 1.1875 -10.53125 C 1.757812 -11.0625 2.613281 -11.328125 3.75 -11.328125 Z M 3.75 -11.328125 "/></g></g><g style="fill:#4caf50;fill-opacity:1;"><g transform="translate(171.995653, 248.723092)"><path style="stroke:none" d="M 3.203125 -7.078125 L 4.296875 -7.078125 L 4.296875 -11.09375 L 7.15625 -11.09375 L 7.15625 0 L 4.296875 0 L 4.296875 -4.65625 L 3.203125 -4.65625 L 3.203125 0 L 0.34375 0 L 0.34375 -11.09375 L 3.203125 -11.09375 Z M 3.203125 -7.078125 "/></g></g><g style="fill:#4caf50;fill-opacity:1;"><g transform="translate(181.700923, 248.723092)"><path style="stroke:none" d="M 6.28125 -8.859375 L 4.59375 -8.859375 L 4.59375 0 L 1.71875 0 L 1.71875 -8.859375 L 0.03125 -8.859375 L 0.03125 -11.09375 L 6.28125 -11.09375 Z M 6.28125 -8.859375 "/></g></g><g style="fill:#4caf50;fill-opacity:1;"><g transform="translate(190.224265, 248.723092)"><path style="stroke:none" d="M 5.171875 -8.859375 L 3.203125 -8.859375 L 3.203125 -6.828125 L 5.046875 -6.828125 L 5.046875 -4.671875 L 3.203125 -4.671875 L 3.203125 -2.234375 L 5.328125 -2.234375 L 5.328125 0 L 0.34375 0 L 0.34375 -11.09375 L 5.171875 -11.09375 Z M 5.171875 -8.859375 "/></g></g><g style="fill:#4caf50;fill-opacity:1;"><g transform="translate(197.907812, 248.723092)"><path style="stroke:none" d="M 4.40625 -5.578125 L 4.4375 -5.578125 L 4.4375 -11.09375 L 6.859375 -11.09375 L 6.859375 0 L 4.4375 0 L 2.8125 -6.203125 L 2.765625 -6.203125 L 2.765625 0 L 0.34375 0 L 0.34375 -11.09375 L 2.765625 -11.09375 Z M 4.40625 -5.578125 "/></g></g><g style="fill:#4caf50;fill-opacity:1;"><g transform="translate(207.317597, 248.723092)"><path style="stroke:none" d=""/></g></g><g style="fill:#4caf50;fill-opacity:1;"><g transform="translate(213.259342, 248.723092)"><path style="stroke:none" d="M 6.28125 -8.859375 L 4.59375 -8.859375 L 4.59375 0 L 1.71875 0 L 1.71875 -8.859375 L 0.03125 -8.859375 L 0.03125 -11.09375 L 6.28125 -11.09375 Z M 6.28125 -8.859375 "/></g></g><g style="fill:#4caf50;fill-opacity:1;"><g transform="translate(221.782684, 248.723092)"><path style="stroke:none" d="M 3.203125 -7.078125 L 4.296875 -7.078125 L 4.296875 -11.09375 L 7.15625 -11.09375 L 7.15625 0 L 4.296875 0 L 4.296875 -4.65625 L 3.203125 -4.65625 L 3.203125 0 L 0.34375 0 L 0.34375 -11.09375 L 3.203125 -11.09375 Z M 3.203125 -7.078125 "/></g></g><g style="fill:#4caf50;fill-opacity:1;"><g transform="translate(231.487954, 248.723092)"><path style="stroke:none" d="M 5.171875 -8.859375 L 3.203125 -8.859375 L 3.203125 -6.828125 L 5.046875 -6.828125 L 5.046875 -4.671875 L 3.203125 -4.671875 L 3.203125 -2.234375 L 5.328125 -2.234375 L 5.328125 0 L 0.34375 0 L 0.34375 -11.09375 L 5.171875 -11.09375 Z M 5.171875 -8.859375 "/></g></g><g style="fill:#4caf50;fill-opacity:1;"><g transform="translate(239.179643, 248.723092)"><path style="stroke:none" d=""/></g></g><g style="fill:#4caf50;fill-opacity:1;"><g transform="translate(245.121388, 248.723092)"><path style="stroke:none" d=""/></g></g><g style="fill:#4caf50;fill-opacity:1;"><g transform="translate(251.063133, 248.723092)"><path style="stroke:none" d=""/></g></g><g style="fill:#4caf50;fill-opacity:1;"><g transform="translate(257.004878, 248.723092)"><path style="stroke:none" d=""/></g></g><g style="fill:#4caf50;fill-opacity:1;"><g transform="translate(262.946623, 248.723092)"><path style="stroke:none" d=""/></g></g><g style="fill:#4caf50;fill-opacity:1;"><g transform="translate(268.893517, 248.723092)"><path style="stroke:none" d="M 5.15625 -8.859375 L 3.203125 -8.859375 L 3.203125 -6.828125 L 4.875 -6.828125 L 4.875 -4.671875 L 3.203125 -4.671875 L 3.203125 0 L 0.34375 0 L 0.34375 -11.09375 L 5.15625 -11.09375 Z M 5.15625 -8.859375 "/></g></g><g style="fill:#4caf50;fill-opacity:1;"><g transform="translate(276.281579, 248.723092)"><path style="stroke:none" d="M 3.203125 -2.5625 C 3.203125 -2.21875 3.253906 -1.988281 3.359375 -1.875 C 3.460938 -1.769531 3.59375 -1.71875 3.75 -1.71875 C 3.90625 -1.71875 4.035156 -1.769531 4.140625 -1.875 C 4.242188 -1.988281 4.296875 -2.21875 4.296875 -2.5625 L 4.296875 -11.09375 L 7.15625 -11.09375 L 7.15625 -2.96875 C 7.15625 -0.832031 6.019531 0.234375 3.75 0.234375 C 1.476562 0.234375 0.34375 -0.832031 0.34375 -2.96875 L 0.34375 -11.09375 L 3.203125 -11.09375 Z M 3.203125 -2.5625 "/></g></g><g style="fill:#4caf50;fill-opacity:1;"><g transform="translate(285.986849, 248.723092)"><path style="stroke:none" d="M 6.28125 -8.859375 L 4.59375 -8.859375 L 4.59375 0 L 1.71875 0 L 1.71875 -8.859375 L 0.03125 -8.859375 L 0.03125 -11.09375 L 6.28125 -11.09375 Z M 6.28125 -8.859375 "/></g></g><g style="fill:#4caf50;fill-opacity:1;"><g transform="translate(294.510191, 248.723092)"><path style="stroke:none" d="M 3.203125 -2.5625 C 3.203125 -2.21875 3.253906 -1.988281 3.359375 -1.875 C 3.460938 -1.769531 3.59375 -1.71875 3.75 -1.71875 C 3.90625 -1.71875 4.035156 -1.769531 4.140625 -1.875 C 4.242188 -1.988281 4.296875 -2.21875 4.296875 -2.5625 L 4.296875 -11.09375 L 7.15625 -11.09375 L 7.15625 -2.96875 C 7.15625 -0.832031 6.019531 0.234375 3.75 0.234375 C 1.476562 0.234375 0.34375 -0.832031 0.34375 -2.96875 L 0.34375 -11.09375 L 3.203125 -11.09375 Z M 3.203125 -2.5625 "/></g></g><g style="fill:#4caf50;fill-opacity:1;"><g transform="translate(304.215461, 248.723092)"><path style="stroke:none" d="M 6.75 -8.90625 L 6.75 -7.78125 C 6.75 -7.175781 6.609375 -6.71875 6.328125 -6.40625 C 6.046875 -6.101562 5.625 -5.929688 5.0625 -5.890625 L 5.0625 -5.859375 C 5.675781 -5.816406 6.128906 -5.640625 6.421875 -5.328125 C 6.710938 -5.015625 6.859375 -4.554688 6.859375 -3.953125 L 6.859375 0 L 4.1875 0 L 4.1875 -4.265625 C 4.1875 -4.867188 3.9375 -5.171875 3.4375 -5.171875 C 3.320312 -5.171875 3.210938 -5.15625 3.109375 -5.125 L 3.109375 0 L 0.34375 0 L 0.34375 -11.09375 L 3.6875 -11.09375 C 4.34375 -11.09375 4.882812 -11.046875 5.3125 -10.953125 C 5.738281 -10.859375 6.082031 -10.648438 6.34375 -10.328125 C 6.613281 -10.015625 6.75 -9.539062 6.75 -8.90625 Z M 3.3125 -6.859375 C 3.644531 -6.859375 3.875 -6.929688 4 -7.078125 C 4.125 -7.234375 4.1875 -7.410156 4.1875 -7.609375 L 4.1875 -8.578125 C 4.1875 -8.765625 4.125 -8.9375 4 -9.09375 C 3.875 -9.25 3.648438 -9.328125 3.328125 -9.328125 L 3.109375 -9.328125 L 3.109375 -6.859375 Z M 3.3125 -6.859375 "/></g></g><g style="fill:#4caf50;fill-opacity:1;"><g transform="translate(313.625245, 248.723092)"><path style="stroke:none" d="M 5.171875 -8.859375 L 3.203125 -8.859375 L 3.203125 -6.828125 L 5.046875 -6.828125 L 5.046875 -4.671875 L 3.203125 -4.671875 L 3.203125 -2.234375 L 5.328125 -2.234375 L 5.328125 0 L 0.34375 0 L 0.34375 -11.09375 L 5.171875 -11.09375 Z M 5.171875 -8.859375 "/></g></g></g></svg>